<svg id="Layer" xmlns="http://www.w3.org/2000/svg" viewBox="0 0 400 400"><defs><style>.cls-1{fill:none;}.cls-1,.cls-2{stroke:#231f20;stroke-miterlimit:10;stroke-width:6px;}.cls-2{fill:#fff;}</style></defs><title>logo</title><path class="cls-1" d="M282.32,99s-21.39-7.82-28.77-9.57c-13.39-3.19-35.34-5.18-54.8-5.18-16.79,0-48,3.86-58.43,6.32-7.47,1.77-25.13,8.75-25.13,8.75"/><path class="cls-1" d="M121,97.46s-7.1-20.07,11.29-33c13.36-9.4,46.58-15.7,68.17-15.49,19.22.19,47.5,4.77,61.26,15.49,20.61,16,11.86,33,11.86,33"/><path class="cls-1" d="M86.64,122.36s30.64-13.84,53.62-18.52c14.2-2.89,36.57-3.32,56-3.32s45.23,1.65,60.13,3.83c9.51,1.4,28.16,8.61,36.85,11.43,5.51,1.79,20.15,9.15,20.15,9.15"/><path class="cls-1" d="M89.45,130s31.54-13.85,50.81-18.13c14.15-3.14,36.57-3.32,56-3.32s45.23,1.65,60.13,3.83c9.51,1.4,27.94,8.7,36.43,12.09,8.78,3.51,17.51,8.08,17.51,8.08"/><path class="cls-1" d="M302.3,153.14s-39.43-15.39-48.94-16.79c-14.9-2.18-40.72-3.83-60.13-3.83s-41.69.85-56,3.32C118.81,139,98.9,149.18,98.9,149.18"/><path class="cls-1" d="M300.13,160.46s-37.26-14.71-46.77-16.11c-14.9-2.18-40.72-3.83-60.13-3.83s-41.81.25-56,3.32c-14.62,3.17-36.83,13.64-36.83,13.64"/><line class="cls-1" x1="128.61" y1="146.16" x2="128.61" y2="260.64"/><line class="cls-1" x1="137.26" y1="143.84" x2="137.26" y2="261"/><path class="cls-1" d="M227.47,171.14a17,17,0,0,1,4.81-10.51,41.46,41.46,0,0,1,8.25-7.15s5.19,2,7.66,5.53,4,12.17,4,12.17-6.83-7.21-7-7.08S241,175.33,241,175.33l-4.6-10.15Z"/><path class="cls-1" d="M179.13,172.55s.13-7.49,5.15-12.69a79.54,79.54,0,0,1,11.06-9.27s7.32,4.68,10.21,8.51S210.38,172,210.38,172l-6.7-7.58-7.49,9.84-8.42-11.07Z"/><path class="cls-1" d="M139.09,175.18s.34-8.85,3.4-12.76a95.92,95.92,0,0,1,7.66-8.34s7.06,3.66,9.45,7.23a27,27,0,0,1,3.31,8.6l-4.85-3.75L151.7,176l-5.47-9.37Z"/><path class="cls-1" d="M113.89,176a51.71,51.71,0,0,1,.77-7.86c.64-2.68,4.6-5.76,4.6-5.76s5.36,3.34,6,5.25,1.53,6.58,1.53,6.58l-5.62-2.68L119,177.69l-3.06-5.23Z"/><path class="cls-1" d="M268.36,178.29s.17-7.53,2.64-10.77a43.61,43.61,0,0,1,4.94-5.44s4.34,2.47,5.27,5.36,1.11,10.85,1.11,10.85l-2.64-5.4-2.72,9L272.87,172Z"/><path class="cls-1" d="M91.51,268.76s50.36-8.64,73.58-9.19c10.43-.25,31.3-1.2,41.74-1.28,14.92-.11,48.48.77,59.66,2,11.38,1.3,43,5.45,43,5.45"/><line class="cls-1" x1="94.59" y1="277.08" x2="94.57" y2="351.01"/><path class="cls-1" d="M134.62,351s.16-40.34.1-54.64c-.1-21.53,31.82-21.53,31.76,0,0,14.39.05,54.66.05,54.66"/><line class="cls-1" x1="92.45" y1="129.72" x2="101.95" y2="148.35"/><line class="cls-1" x1="102.88" y1="124.83" x2="111.63" y2="143.54"/><line class="cls-1" x1="115.19" y1="119.75" x2="124.11" y2="139.03"/><line class="cls-1" x1="131.29" y1="114.11" x2="137.26" y2="135.84"/><line class="cls-1" x1="147.44" y1="110.87" x2="149.43" y2="134.15"/><line class="cls-1" x1="164.32" y1="111.63" x2="164.85" y2="133.08"/><line class="cls-1" x1="179.6" y1="108.69" x2="179.6" y2="131.52"/><line class="cls-1" x1="195.7" y1="108.52" x2="195.7" y2="131.52"/><line class="cls-1" x1="212.96" y1="108.69" x2="212.1" y2="133.08"/><line class="cls-1" x1="229.18" y1="109.7" x2="227.47" y2="133.78"/><line class="cls-1" x1="245.32" y1="111.02" x2="242.85" y2="135.08"/><line class="cls-1" x1="261.05" y1="113.32" x2="257.3" y2="136.54"/><line class="cls-1" x1="276.58" y1="118.23" x2="270.56" y2="140.86"/><line class="cls-1" x1="292.79" y1="124.44" x2="284.38" y2="145.98"/><line class="cls-1" x1="307.17" y1="131.08" x2="299.57" y2="151.6"/><polygon class="cls-2" points="293.02 112.26 293.21 100.74 284.57 96.53 284.38 108.18 293.02 112.26"/><polygon class="cls-2" points="256.34 99.44 257.3 86.2 266.83 89.24 265.87 101.6 256.34 99.44"/><polygon class="cls-2" points="216.14 96.07 216.15 80.06 227.25 80.69 227.47 96.87 216.14 96.07"/><polygon class="cls-2" points="166.01 97.33 178.63 96.95 178.35 81.5 166.11 81.82 166.01 97.33"/><polygon class="cls-2" points="128.63 102.61 128.45 90.14 138.15 87.4 138.34 100.19 128.63 102.61"/><polygon class="cls-2" points="106.16 110.87 114.73 107.54 112.96 96.53 105.02 99.53 106.16 110.87"/><line class="cls-1" x1="102.93" y1="155.12" x2="102.93" y2="265.14"/><line class="cls-1" x1="111.58" y1="152.8" x2="111.58" y2="263.26"/><line class="cls-1" x1="164.58" y1="143.18" x2="164.58" y2="257.66"/><line class="cls-1" x1="173.23" y1="140.86" x2="173.23" y2="258.02"/><line class="cls-1" x1="213.92" y1="143.18" x2="213.92" y2="257.66"/><line class="cls-1" x1="222.57" y1="140.86" x2="222.57" y2="258.02"/><line class="cls-1" x1="255.93" y1="146.16" x2="255.93" y2="260.64"/><line class="cls-1" x1="264.58" y1="146.16" x2="264.58" y2="261"/><line class="cls-1" x1="286.62" y1="155.12" x2="286.62" y2="263.64"/><line class="cls-1" x1="295.27" y1="158.57" x2="295.27" y2="264"/><path class="cls-1" d="M179.07,351s.21-41.74.13-56.54c-.13-22.28,41.59-22.28,41.51,0-.05,14.89.06,56.57.06,56.57"/><path class="cls-1" d="M102.34,351s.11-37.47.06-50.74c-.06-20,21.72-20,21.68,0,0,13.36,0,50.76,0,50.76"/><path class="cls-1" d="M91.51,277.76s50.36-8.64,73.58-9.19c10.43-.25,31.3-1.2,41.74-1.28,14.92-.11,48.48.77,59.66,2,11.38,1.3,43,5.45,43,5.45"/><line class="cls-1" x1="306.05" y1="277.08" x2="306.04" y2="351.01"/><path class="cls-1" d="M233.32,351s.16-40.34.1-54.64c-.1-21.53,31.82-21.53,31.76,0,0,14.39.05,54.66.05,54.66"/><path class="cls-1" d="M275.74,351s.11-37.47.06-50.74c-.06-20,21.72-20,21.68,0,0,13.36,0,50.76,0,50.76"/></svg>