<?xml version="1.0" encoding="utf-8"?>
<!-- Generator: Adobe Illustrator 23.0.1, SVG Export Plug-In . SVG Version: 6.00 Build 0)  -->
<svg version="1.1" id="Слой_1" xmlns="http://www.w3.org/2000/svg" xmlns:xlink="http://www.w3.org/1999/xlink" x="0px" y="0px"
	 viewBox="0 0 155.91 155.91" style="enable-background:new 0 0 155.91 155.91;" xml:space="preserve">
<style type="text/css">
	.st0{fill:#398760;}
	.st1{fill:none;stroke:#FFFFFF;stroke-width:2;stroke-miterlimit:10;}
	.st2{fill:none;stroke:#FFFFFF;stroke-miterlimit:10;}
	.st3{enable-background:new    ;}
	.st4{fill:#FFFFFF;}
	.st5{fill:none;stroke:#FFFFFF;stroke-width:1.5;stroke-miterlimit:10;}
</style>
<circle class="st0" cx="77.95" cy="77.95" r="77.04"/>
<path class="st1" d="M147.56,62.7c-2.32,4.01-4.64,8.01-6.96,12.02c-3.08-5.45-6.16-10.89-9.25-16.34
	c-3.16,5.59-6.32,11.17-9.48,16.76c-4.6-6.27-9.19-12.53-13.79-18.8C103.54,62.47,99,68.6,94.46,74.72
	c-5.88-6.13-11.75-12.26-17.63-18.38c-5.7,6.13-11.41,12.26-17.11,18.38c-4.3-6.13-8.61-12.26-12.91-18.38
	c-4.47,6.13-8.93,12.26-13.4,18.38c-2.95-5.45-5.89-10.89-8.84-16.34c-3.1,5.45-6.19,10.89-9.29,16.34
	c-2.32-4.01-4.64-8.01-6.96-12.02"/>
<path class="st2" d="M87.87,57.45c1.85,1.84,3.91,3.64,6.18,5.35c16.44,12.37,35.53,13.46,46.48,13.01
	c-0.11,1.12-0.22,2.24-0.33,3.36"/>
<path class="st2" d="M87.87,57.45c0-2.36,0-4.72,0-7.07H65.74v6.9c-1.66,1.84-3.51,3.64-5.59,5.35
	c-15.56,12.84-34.8,13.59-44.79,13.13c0.1,1.01,0.19,2.02,0.29,3.02"/>
<path class="st2" d="M84.83,50.38V6.46c-2.18-0.32-4.69-0.55-7.47-0.57c-3.21-0.02-6.07,0.24-8.5,0.61c0,14.62,0,29.25,0,43.87
	h15.97V50.38z"/>
<path class="st1" d="M121.68,79.01c3.21-43.29-24.05-73.34-44.2-73.28C57.37,5.79,30.37,35.87,33.66,79.01"/>
<path class="st1" d="M131.48,59.12c-4.82-31.5-30.8-53.84-54.63-53.39C53.51,6.17,28.82,28.54,24.43,59.46"/>
<path class="st1" d="M148.91,79.11c1.14-39.89-31.41-73.28-71.12-73.22C38.17,5.95,5.76,39.31,6.9,79.11
	C54.24,79.11,101.57,79.11,148.91,79.11z"/>
<path class="st1" d="M140.21,79.17c4.88-39.38-26.18-73.32-62.09-73.41c-35.88-0.09-67.1,33.65-62.46,73.03"/>
<path class="st2" d="M45.83,79.31"/>
<path class="st2" d="M46,78.29"/>
<path class="st2" d="M110.51,77.78"/>
<path class="st1" d="M108.16,56.32C102.94,30.46,92.82,12.27,83.3,6.35L82.85,6.1l-0.42-0.21"/>
<path class="st1" d="M46.67,57.15c4.8-26.64,14.91-45.4,24.54-50.9"/>
<path class="st1" d="M77.36,5.73C59.4,8.79,59.7,78.29,59.7,78.29l0,0c0,0.3,0,0.6,0,0.9"/>
<path class="st1" d="M76.85,5.88c17.96,3.06,17.66,72.56,17.66,72.56c0,0.3,0,0.81,0,0.81"/>
<path class="st2" d="M76.85,56.33"/>
<line class="st1" x1="76.85" y1="6.26" x2="76.85" y2="56.33"/>
<line class="st2" x1="65.75" y1="57.28" x2="87.87" y2="57.28"/>
<g>
	<g class="st3">
		<path class="st4" d="M55.14,89.49v17.94h-1.95V87.67h6.76v19.76H58V89.49H55.14z"/>
		<path class="st4" d="M64.26,99.24v1.09c0,1.91,0.12,3.28,0.36,4.11c0.24,0.85,0.64,1.27,1.2,1.27h1.79v0.6
			c0,0.42-0.16,0.73-0.47,0.94c-0.33,0.21-0.8,0.31-1.4,0.31c-1.21,0-2.09-0.58-2.63-1.74c-0.54-1.18-0.81-3.09-0.81-5.75
			c0-2.55,0.26-4.43,0.78-5.64s1.31-1.82,2.37-1.82c0.94,0,1.64,0.48,2.11,1.43c0.47,0.99,0.7,2.44,0.7,4.37v0.83H64.26z
			 M66.45,97.63c-0.05-1.16-0.16-1.98-0.31-2.47c-0.16-0.55-0.38-0.83-0.68-0.83c-0.33,0-0.59,0.29-0.78,0.86
			c-0.19,0.61-0.31,1.49-0.36,2.65L66.45,97.63z"/>
		<path class="st4" d="M80.98,107.62h-8.35c-0.64,0-1.14-0.19-1.48-0.57c-0.35-0.4-0.52-0.95-0.52-1.64V92.8h1.87v11.7
			c0,0.47,0.08,0.81,0.23,1.02c0.16,0.21,0.4,0.31,0.73,0.31h1.4V92.8h1.87v13.03h2.37V92.8h1.87L80.98,107.62L80.98,107.62z"/>
		<path class="st4" d="M87.59,107.43v-0.99c-0.33,0.36-0.69,0.64-1.09,0.83c-0.38,0.19-0.76,0.29-1.14,0.29
			c-0.64,0-1.14-0.19-1.48-0.57c-0.35-0.4-0.52-0.94-0.52-1.64V92.74h1.87v11.7c0,0.47,0.08,0.81,0.23,1.01
			c0.16,0.21,0.4,0.31,0.73,0.31c0.26,0,0.5-0.08,0.73-0.23c0.22-0.16,0.45-0.4,0.68-0.73V92.74h1.87v14.69H87.59z"/>
		<path class="st4" d="M96.06,107.43v-0.99c-0.33,0.36-0.69,0.64-1.09,0.83c-0.38,0.19-0.76,0.29-1.14,0.29
			c-0.64,0-1.14-0.19-1.48-0.57c-0.35-0.4-0.52-0.94-0.52-1.64V92.74h1.87v11.7c0,0.47,0.08,0.81,0.23,1.01
			c0.16,0.21,0.4,0.31,0.73,0.31c0.26,0,0.5-0.08,0.73-0.23c0.23-0.16,0.45-0.4,0.68-0.73V92.74h1.87v14.69H96.06z"/>
	</g>
	<g class="st3">
		<path class="st4" d="M27.76,131.43v-19.76h5.62l-0.39,1.82h-3.28v5.2h3.07v1.82h-3.07v9.1h3.67l0.39,1.82H27.76z"/>
		<path class="st4" d="M38,116.59v4.84c0.54-1.13,1.09-2.1,1.66-2.91c0.57-0.81,1.14-1.45,1.72-1.9l1.4,1.25
			c-0.62,0.55-1.25,1.21-1.87,1.98c-0.55,0.68-1.07,1.42-1.56,2.23l3.64,8.74l-1.9,0.75l-3.09-8.2v8.06h-1.87v-14.85L38,116.59
			L38,116.59z"/>
		<path class="st4" d="M49.52,131.43v-0.68c-0.33,0.28-0.64,0.48-0.94,0.6c-0.31,0.14-0.59,0.21-0.83,0.21
			c-0.68,0-1.21-0.39-1.61-1.17c-0.4-0.8-0.6-1.88-0.6-3.25c0-1.68,0.25-2.88,0.75-3.59c0.5-0.73,1.3-1.09,2.39-1.09
			c0.21,0,0.35,0.01,0.44,0.03c0.16,0.02,0.29,0.04,0.39,0.08v-0.8c0-1.16-0.12-2.01-0.36-2.55c-0.23-0.52-0.62-0.78-1.17-0.78
			c-0.31,0-0.59,0.09-0.83,0.26c-0.26,0.16-0.52,0.42-0.78,0.78l-1.01-1.04c0.43-0.64,0.9-1.1,1.4-1.38
			c0.54-0.29,1.15-0.44,1.85-0.44c1.01,0,1.72,0.42,2.13,1.25c0.43,0.81,0.65,2.26,0.65,4.34v9.23h-1.87V131.43z M49.52,124.23
			l-0.49-0.05c-0.05-0.02-0.12-0.03-0.21-0.03c-0.49,0-0.84,0.22-1.07,0.65c-0.21,0.43-0.31,1.19-0.31,2.26
			c0,1.11,0.08,1.85,0.23,2.21c0.16,0.4,0.44,0.6,0.86,0.6c0.16,0,0.31-0.04,0.47-0.1c0.21-0.1,0.38-0.22,0.52-0.34V124.23z"/>
		<path class="st4" d="M59.19,118.67H57.4v12.77h-1.77v-12.77l-2.52-0.03l0.83-1.87h6.11L59.19,118.67z"/>
		<path class="st4" d="M63.69,123.24v1.09c0,1.91,0.12,3.28,0.36,4.11c0.24,0.85,0.64,1.27,1.2,1.27h1.79v0.6
			c0,0.42-0.16,0.73-0.47,0.94c-0.33,0.21-0.8,0.31-1.4,0.31c-1.21,0-2.09-0.58-2.63-1.74c-0.54-1.18-0.81-3.09-0.81-5.75
			c0-2.55,0.26-4.43,0.78-5.64s1.31-1.82,2.37-1.82c0.94,0,1.64,0.48,2.11,1.43c0.47,0.99,0.7,2.44,0.7,4.37v0.83H63.69z
			 M65.87,121.63c-0.05-1.16-0.16-1.98-0.31-2.47c-0.16-0.55-0.38-0.83-0.68-0.83c-0.33,0-0.59,0.29-0.78,0.86
			c-0.19,0.61-0.31,1.49-0.36,2.65L65.87,121.63z"/>
		<path class="st4" d="M72.35,116.74c1.39,0,2.37,0.56,2.94,1.66c0.59,1.11,0.88,3.03,0.88,5.75c0,2.45-0.26,4.29-0.78,5.54
			s-1.28,1.87-2.29,1.87c-0.19,0-0.39-0.03-0.6-0.08c-0.16-0.05-0.35-0.14-0.57-0.26v5.8h-1.87v-20.28
			C70.06,116.74,72.35,116.74,72.35,116.74z M71.93,129.64l0.55,0.16c0.14,0.04,0.23,0.05,0.29,0.05c0.52,0,0.88-0.42,1.09-1.25
			c0.23-0.8,0.34-2.22,0.34-4.26c0-2.15-0.14-3.67-0.42-4.55c-0.26-0.9-0.71-1.35-1.35-1.35h-0.49v11.2H71.93z"/>
		<path class="st4" d="M82.77,131.43v-0.99c-0.33,0.36-0.69,0.64-1.09,0.83c-0.38,0.19-0.76,0.29-1.14,0.29
			c-0.64,0-1.14-0.19-1.48-0.57c-0.35-0.4-0.52-0.94-0.52-1.64v-12.61h1.87v11.7c0,0.47,0.08,0.81,0.23,1.01
			c0.16,0.21,0.4,0.31,0.73,0.31c0.26,0,0.5-0.08,0.73-0.23c0.23-0.16,0.45-0.4,0.68-0.73v-12.06h1.87v14.69L82.77,131.43
			L82.77,131.43z"/>
		<path class="st4" d="M91.61,131.43v-8.58h-2.73v8.58h-1.87v-14.79h1.87v4.39h2.73v-4.39h1.87v14.79H91.61z"/>
		<path class="st4" d="M97.9,117.32c0.19-0.24,0.39-0.42,0.6-0.52c0.19-0.12,0.42-0.18,0.68-0.18c1.04,0,1.84,0.63,2.39,1.9
			c0.54,1.25,0.81,3.1,0.81,5.56c0,2.57-0.27,4.45-0.81,5.64c-0.52,1.23-1.34,1.85-2.47,1.85h-0.18c-0.85,0-1.53-0.24-2.03-0.73
			c-0.5-0.64-0.81-1.32-0.91-2.03c0.03-0.76,0.05-1.29,0.05-1.59v-8.16c-0.09-0.76-0.13-1.47-0.13-2.13c0-4.09,1.67-6.14,5.02-6.14
			c0.35,0,0.71,0.03,1.09,0.08l-0.78,1.9c-0.16-0.02-0.29-0.03-0.42-0.03c-1.94,0-2.91,1.43-2.91,4.29
			C97.9,117.03,97.9,117.32,97.9,117.32z M97.9,127.9c0,0.63,0.1,1.11,0.29,1.46c0.21,0.35,0.49,0.52,0.83,0.52
			c0.5,0,0.86-0.44,1.07-1.33c0.21-0.81,0.31-2.3,0.31-4.47c0-2.15-0.11-3.64-0.34-4.47c-0.21-0.85-0.57-1.27-1.09-1.27
			c-0.23,0-0.43,0.08-0.63,0.23c-0.21,0.17-0.36,0.4-0.44,0.68C97.9,119.25,97.9,127.9,97.9,127.9z"/>
		<path class="st4" d="M111.55,116.9c-0.49,3.57-1.13,7.06-1.92,10.48c-0.85,3.59-1.79,6.85-2.81,9.78l-1.85-0.7l2.11-6.14
			L104.22,117l2.05-0.39l1.74,10.61l1.61-10.61L111.55,116.9z"/>
		<path class="st4" d="M115.79,116.74c1.39,0,2.37,0.56,2.94,1.66c0.59,1.11,0.88,3.03,0.88,5.75c0,2.45-0.26,4.29-0.78,5.54
			s-1.28,1.87-2.29,1.87c-0.19,0-0.39-0.03-0.6-0.08c-0.16-0.05-0.35-0.14-0.57-0.26v5.8h-1.87v-20.28
			C113.5,116.74,115.79,116.74,115.79,116.74z M115.38,129.64l0.55,0.16c0.14,0.04,0.23,0.05,0.29,0.05c0.52,0,0.88-0.42,1.09-1.25
			c0.23-0.8,0.34-2.22,0.34-4.26c0-2.15-0.14-3.67-0.42-4.55c-0.26-0.9-0.71-1.35-1.35-1.35h-0.49v11.2H115.38z"/>
		<path class="st4" d="M121.98,131.41v-14.66h5.85l-0.39,1.82h-3.51v12.84H121.98z"/>
	</g>
	<path class="st4" d="M46.29,112.25c0.56-0.02,1.04,0.7,1.08,1.6c0.03,0.9-0.39,1.66-0.95,1.68s-1.04-0.7-1.08-1.6
		C45.31,113.02,45.73,112.27,46.29,112.25z M49.3,114.32c-0.04,0.63-0.39,1.11-0.78,1.09c-0.39-0.03-0.67-0.55-0.62-1.18
		c0.04-0.63,0.39-1.11,0.78-1.09C49.06,113.17,49.34,113.7,49.3,114.32z M50.86,114.97c-0.03,0.51-0.32,0.9-0.63,0.88
		s-0.54-0.45-0.51-0.96c0.03-0.51,0.32-0.9,0.63-0.88S50.89,114.46,50.86,114.97z M51.76,115.83c-0.07,0.37-0.32,0.63-0.54,0.59
		c-0.23-0.04-0.36-0.38-0.28-0.75c0.07-0.37,0.32-0.63,0.54-0.59C51.7,115.13,51.83,115.46,51.76,115.83z M52.36,116.8
		c-0.06,0.29-0.25,0.51-0.43,0.47s-0.28-0.3-0.23-0.6c0.06-0.29,0.25-0.51,0.44-0.47C52.31,116.24,52.41,116.51,52.36,116.8z"/>
	<path class="st5" d="M93.38,89.98c0,0,1.44,2.18,3.24,0"/>
</g>
</svg>
